# xmcd CD database file
#
# Track frame offsets:
#	150
#	22818
#	45183
#	61846
#	75116
#	90844
#	108523
#	124590
#	139495
#	160161
#	181315
#	203574
#	220813
#	238714
#	261714
#
# Disc length: 3720 seconds
#
# Revision: 0
# Processed by: cddbd v1.5.2PL0 Copyright (c) Steve Scherf et al.
# Submitted via: CDex 1.70beta2
#
DISCID=ba0e860f
DTITLE=Play Music - The New Age Vol. 2
DYEAR=2001
DGENRE=New Age
TTITLE0=Hey
TTITLE1=Un Canto A Galiciaace
TTITLE2=Eleni
TTITLE3=The Sun In The Stream
TTITLE4=The Last Unicorn
TTITLE5=Show Me Heaven
TTITLE6=The Glory Of Lover
TTITLE7=West Across The Ocean Sea
TTITLE8=Fernando
TTITLE9=Twenty Eight Parallel
TTITLE10=Who Eants To Live Forever
TTITLE11=Forever Young
TTITLE12=Ernal Flame
TTITLE13=Nikita
TTITLE14=La Carretera
EXTD=YEAR: 2001
EXTT0=
EXTT1=
EXTT2=
EXTT3=
EXTT4=
EXTT5=
EXTT6=
EXTT7=
EXTT8=
EXTT9=
EXTT10=
EXTT11=
EXTT12=
EXTT13=
EXTT14=
PLAYORDER=
